<svg xmlns="http://www.w3.org/2000/svg" width="899.617" height="371.092" viewBox="0 0 899.617 371.092">
  <defs>
    <style>
      .cls-1 {
        opacity: 0.49;
      }

      .cls-2 {
        fill: #1e1e1e;
      }
    </style>
  </defs>
  <g id="Group_1263" data-name="Group 1263" class="cls-1" transform="translate(-628.891 -59.574)">
    <g id="Group_1260" data-name="Group 1260" transform="translate(628.891 59.574)">
      <g id="Group_1215" data-name="Group 1215" transform="translate(285.555 177.384)">
        <g id="Group_1142" data-name="Group 1142" transform="translate(126.269)">
          <g id="Group_1124" data-name="Group 1124" transform="translate(0 137.707)">
            <path id="Path_7807" data-name="Path 7807" class="cls-2" d="M857.779,206.1V175.255l51.054.517V206.1Z" transform="translate(-857.779 -175.255)"/>
          </g>
          <g id="Group_1125" data-name="Group 1125" transform="translate(8.591 22.034)">
            <path id="Path_7808" data-name="Path 7808" class="cls-2" d="M862.554,230.42l1.167-110.356,8.866.933v8.4l1.866-.233v-9.1l6.3-9.1,5.6,8.866v10.032l1.866-.233v-9.8h8.866l1.633,110.589Z" transform="translate(-862.554 -110.965)"/>
          </g>
          <g id="Group_1131" data-name="Group 1131" transform="translate(9.075 8.459)">
            <g id="Group_1126" data-name="Group 1126" transform="translate(0 6.123)">
              <path id="Path_7809" data-name="Path 7809" class="cls-2" d="M873.04,124.834H862.823l5.109-18.01H869.4Z" transform="translate(-862.823 -106.824)"/>
            </g>
            <g id="Group_1127" data-name="Group 1127" transform="translate(4.801 5.485)">
              <path id="Path_7810" data-name="Path 7810" class="cls-2" d="M865.492,107.311h2.077v-.73l-2.077-.112Z" transform="translate(-865.492 -106.469)"/>
            </g>
            <g id="Group_1128" data-name="Group 1128" transform="translate(5.391 0.881)">
              <path id="Path_7811" data-name="Path 7811" class="cls-2" d="M865.819,108.935l.14-5.025h.842l-.14,5.025Z" transform="translate(-865.819 -103.91)"/>
            </g>
            <g id="Group_1129" data-name="Group 1129" transform="translate(3.987 3.042)">
              <path id="Path_7812" data-name="Path 7812" class="cls-2" d="M865.039,105.111l3.733.168v.779l-3.733.047Z" transform="translate(-865.039 -105.111)"/>
            </g>
            <g id="Group_1130" data-name="Group 1130" transform="translate(5.063)">
              <path id="Path_7813" data-name="Path 7813" class="cls-2" d="M866.06,104.6h1.358s.212-.522-.43-.606c.056-.018.1-.686-.576-.552-.4.079-.352.552-.352.552s-.392-.061-.423.606Z" transform="translate(-865.637 -103.42)"/>
            </g>
          </g>
          <g id="Group_1137" data-name="Group 1137" transform="translate(33.621 8.459)">
            <g id="Group_1132" data-name="Group 1132" transform="translate(0 6.123)">
              <path id="Path_7814" data-name="Path 7814" class="cls-2" d="M886.683,124.834H876.466l5.109-18.01h1.472Z" transform="translate(-876.466 -106.824)"/>
            </g>
            <g id="Group_1133" data-name="Group 1133" transform="translate(4.801 5.485)">
              <path id="Path_7815" data-name="Path 7815" class="cls-2" d="M879.134,107.311h2.078v-.73l-2.078-.112Z" transform="translate(-879.134 -106.469)"/>
            </g>
            <g id="Group_1134" data-name="Group 1134" transform="translate(5.391 0.881)">
              <path id="Path_7816" data-name="Path 7816" class="cls-2" d="M879.462,108.935l.14-5.025h.842l-.14,5.025Z" transform="translate(-879.462 -103.91)"/>
            </g>
            <g id="Group_1135" data-name="Group 1135" transform="translate(3.987 3.042)">
              <path id="Path_7817" data-name="Path 7817" class="cls-2" d="M878.682,105.111l3.734.168v.779l-3.734.047Z" transform="translate(-878.682 -105.111)"/>
            </g>
            <g id="Group_1136" data-name="Group 1136" transform="translate(5.064)">
              <path id="Path_7818" data-name="Path 7818" class="cls-2" d="M879.7,104.6h1.358s.212-.522-.43-.606c.054-.018.1-.686-.578-.552-.4.079-.351.552-.351.552s-.394-.061-.423.606Z" transform="translate(-879.28 -103.42)"/>
            </g>
          </g>
          <g id="Group_1138" data-name="Group 1138" transform="translate(20.891 7.667)">
            <path id="Path_7819" data-name="Path 7819" class="cls-2" d="M869.39,123.236c.282-.07,11.815,0,11.815,0L877.2,102.98h-3.3Z" transform="translate(-869.39 -102.98)"/>
          </g>
          <g id="Group_1139" data-name="Group 1139" transform="translate(24.993 6.893)">
            <path id="Path_7820" data-name="Path 7820" class="cls-2" d="M871.67,104.117l4.116-.253V102.55H871.67Z" transform="translate(-871.67 -102.55)"/>
          </g>
          <g id="Group_1140" data-name="Group 1140" transform="translate(26.207)">
            <path id="Path_7821" data-name="Path 7821" class="cls-2" d="M872.345,106.245l.422-7.526h.914l.352,7.526Z" transform="translate(-872.345 -98.719)"/>
          </g>
          <g id="Group_1141" data-name="Group 1141" transform="translate(26.028 1.407)">
            <rect id="Rectangle_816" data-name="Rectangle 816" class="cls-2" width="2.243" height="0.985"/>
          </g>
        </g>
        <g id="Group_1161" data-name="Group 1161" transform="translate(323.559)">
          <g id="Group_1143" data-name="Group 1143" transform="translate(0 137.707)">
            <path id="Path_7822" data-name="Path 7822" class="cls-2" d="M968.337,206.1l-.905-30.846H1018.5V206.1Z" transform="translate(-967.432 -175.255)"/>
          </g>
          <g id="Group_1144" data-name="Group 1144" transform="translate(8.605 22.034)">
            <path id="Path_7823" data-name="Path 7823" class="cls-2" d="M972.214,230.42l1.166-110.356,8.866.933v8.4l1.867-.233v-9.1l6.3-9.1,5.6,8.866v10.032l1.866-.233v-9.8h8.866l1.633,110.589Z" transform="translate(-972.214 -110.965)"/>
          </g>
          <g id="Group_1150" data-name="Group 1150" transform="translate(9.088 8.459)">
            <g id="Group_1145" data-name="Group 1145" transform="translate(0 6.123)">
              <path id="Path_7824" data-name="Path 7824" class="cls-2" d="M982.7,124.834H972.483l5.109-18.01h1.472Z" transform="translate(-972.483 -106.824)"/>
            </g>
            <g id="Group_1146" data-name="Group 1146" transform="translate(4.801 5.485)">
              <path id="Path_7825" data-name="Path 7825" class="cls-2" d="M975.151,107.311h2.078v-.73l-2.078-.112Z" transform="translate(-975.151 -106.469)"/>
            </g>
            <g id="Group_1147" data-name="Group 1147" transform="translate(5.391 0.881)">
              <path id="Path_7826" data-name="Path 7826" class="cls-2" d="M975.479,108.935l.14-5.025h.842l-.14,5.025Z" transform="translate(-975.479 -103.91)"/>
            </g>
            <g id="Group_1148" data-name="Group 1148" transform="translate(3.987 3.042)">
              <path id="Path_7827" data-name="Path 7827" class="cls-2" d="M974.7,105.111l3.734.168v.779l-3.734.047Z" transform="translate(-974.699 -105.111)"/>
            </g>
            <g id="Group_1149" data-name="Group 1149" transform="translate(5.064)">
              <path id="Path_7828" data-name="Path 7828" class="cls-2" d="M975.72,104.6h1.358s.212-.522-.43-.606c.056-.018.1-.686-.576-.552-.4.079-.353.552-.353.552s-.392-.061-.423.606Z" transform="translate(-975.297 -103.42)"/>
            </g>
          </g>
          <g id="Group_1156" data-name="Group 1156" transform="translate(33.635 8.459)">
            <g id="Group_1151" data-name="Group 1151" transform="translate(0 6.123)">
              <path id="Path_7829" data-name="Path 7829" class="cls-2" d="M996.343,124.834H986.125l5.109-18.01h1.472Z" transform="translate(-986.125 -106.824)"/>
            </g>
            <g id="Group_1152" data-name="Group 1152" transform="translate(4.801 5.485)">
              <path id="Path_7830" data-name="Path 7830" class="cls-2" d="M988.794,107.311h2.078v-.73l-2.078-.112Z" transform="translate(-988.794 -106.469)"/>
            </g>
            <g id="Group_1153" data-name="Group 1153" transform="translate(5.391 0.881)">
              <path id="Path_7831" data-name="Path 7831" class="cls-2" d="M989.121,108.935l.14-5.025h.842l-.14,5.025Z" transform="translate(-989.121 -103.91)"/>
            </g>
            <g id="Group_1154" data-name="Group 1154" transform="translate(3.987 3.042)">
              <path id="Path_7832" data-name="Path 7832" class="cls-2" d="M988.341,105.111l3.734.168v.779l-3.734.047Z" transform="translate(-988.341 -105.111)"/>
            </g>
            <g id="Group_1155" data-name="Group 1155" transform="translate(5.064)">
              <path id="Path_7833" data-name="Path 7833" class="cls-2" d="M989.363,104.6h1.358s.212-.522-.432-.606c.056-.018.1-.686-.576-.552-.4.079-.351.552-.351.552s-.394-.061-.423.606Z" transform="translate(-988.94 -103.42)"/>
            </g>
          </g>
          <g id="Group_1157" data-name="Group 1157" transform="translate(20.904 7.667)">
            <path id="Path_7834" data-name="Path 7834" class="cls-2" d="M979.05,123.236c.281-.07,11.816,0,11.816,0l-4.009-20.256h-3.305Z" transform="translate(-979.05 -102.98)"/>
          </g>
          <g id="Group_1158" data-name="Group 1158" transform="translate(25.006 6.893)">
            <path id="Path_7835" data-name="Path 7835" class="cls-2" d="M981.33,104.117l4.116-.253V102.55H981.33Z" transform="translate(-981.33 -102.55)"/>
          </g>
          <g id="Group_1159" data-name="Group 1159" transform="translate(26.22)">
            <path id="Path_7836" data-name="Path 7836" class="cls-2" d="M982,106.245l.422-7.526h.914l.352,7.526Z" transform="translate(-982.004 -98.719)"/>
          </g>
          <g id="Group_1160" data-name="Group 1160" transform="translate(26.041 1.407)">
            <rect id="Rectangle_817" data-name="Rectangle 817" class="cls-2" width="2.243" height="0.985"/>
          </g>
        </g>
        <g id="Group_1162" data-name="Group 1162" transform="translate(164.954 48.693)">
          <path id="Path_7837" data-name="Path 7837" class="cls-2" d="M880.056,125.782h170.9v2.251l-171.681,1.5Z" transform="translate(-879.28 -125.782)"/>
        </g>
        <g id="Group_1163" data-name="Group 1163" transform="translate(164.954 56.485)">
          <path id="Path_7838" data-name="Path 7838" class="cls-2" d="M880.056,130.113h170.9v7.337L879.28,138.921Z" transform="translate(-879.28 -130.113)"/>
        </g>
        <g id="Group_1164" data-name="Group 1164" transform="translate(244.047 42.34)">
          <path id="Path_7839" data-name="Path 7839" class="cls-2" d="M923.239,140.7l.192-16.92H924.8v3.1s4.687-.428,5.191-4.626h1.268s1.272,4.325,4.451,4.579v-2.544l1.528-.128v17.048Z" transform="translate(-923.239 -122.251)"/>
        </g>
        <g id="Group_1165" data-name="Group 1165" transform="translate(255.918 43.603)">
          <path id="Path_7840" data-name="Path 7840" class="cls-2" d="M929.839,124.047a16.445,16.445,0,0,0,2.51,0S931.512,121.586,929.839,124.047Z" transform="translate(-929.837 -122.953)"/>
        </g>
        <g id="Group_1166" data-name="Group 1166" transform="translate(243.708 43.248)">
          <path id="Path_7841" data-name="Path 7841" class="cls-2" d="M923.051,123.686h2.411S924.478,121.592,923.051,123.686Z" transform="translate(-923.051 -122.756)"/>
        </g>
        <g id="Group_1167" data-name="Group 1167" transform="translate(250.402 41.645)">
          <rect id="Rectangle_818" data-name="Rectangle 818" class="cls-2" width="2.264" height="0.694"/>
        </g>
        <g id="Group_1168" data-name="Group 1168" transform="translate(250.764 40.857)">
          <path id="Path_7842" data-name="Path 7842" class="cls-2" d="M927,122.562h1.331s.245-1.135-.666-1.135S927,122.562,927,122.562Z" transform="translate(-926.972 -121.427)"/>
        </g>
        <g id="Group_1169" data-name="Group 1169" transform="translate(168.739 49.408)">
          <path id="Path_7843" data-name="Path 7843" class="cls-2" d="M906.511,135.232l-5.224-6.747-4.978,6.06-5.091-6.067-4.782,6.085-5.052-6.429.558-.439,4.494,5.719,4.764-6.063,5.1,6.081,5-6.088,5.189,6.7,4.87-6.71,5.668,6.758L923,127.37l5.516,6.706,5.32-6.732,4.894,6.2,5.853-6.754,5.363,6.6,7.5-5.831,13.394.5L977,134.138l7.178-7.319,6.412,7.314,7.918-7.3,6.377,7.275,6.6-7.28,7.373,7.3,7.075-7.946,6.594,7.891,5.491-7.246,8.746,7.547-.464.537-8.174-7.053-5.573,7.354-6.639-7.945-7.025,7.89-7.378-7.3-6.635,7.321-6.422-7.326-7.918,7.3-6.387-7.287-7.14,7.282-6.475-6.391-12.86-.477-7.843,6.1-5.267-6.482-5.861,6.763-4.868-6.166-5.309,6.717-5.547-6.744-5.963,6.722-5.613-6.692Z" transform="translate(-881.384 -126.18)"/>
        </g>
        <g id="Group_1170" data-name="Group 1170" transform="translate(174.798 137.707)">
          <path id="Path_7844" data-name="Path 7844" class="cls-2" d="M886.843,175.767l146.67-.512,1.76,4.854-150.522,1.822Z" transform="translate(-884.751 -175.255)"/>
        </g>
        <g id="Group_1174" data-name="Group 1174" transform="translate(174.798 141.488)">
          <g id="Group_1171" data-name="Group 1171">
            <path id="Path_7845" data-name="Path 7845" class="cls-2" d="M884.751,192.758s41.485-13.8,66.045-15.4v2.094s-36.012,4.806-66.045,17.758Z" transform="translate(-884.751 -177.357)"/>
          </g>
          <g id="Group_1172" data-name="Group 1172" transform="translate(0.612 1.012)">
            <path id="Path_7846" data-name="Path 7846" class="cls-2" d="M895.942,189.72l-10.851-11.309.512-.491,9.629,10.036v-9.79h.71Z" transform="translate(-885.091 -177.919)"/>
          </g>
          <g id="Group_1173" data-name="Group 1173" transform="translate(10.894 0.586)">
            <path id="Path_7847" data-name="Path 7847" class="cls-2" d="M900.836,187.737l-10.03-7.6.428-.565,8.892,6.736v-7.9l7.826,6.072v-6.8l7.809,5.325-.117-4.644.71-.018.152,6.029-7.844-5.348v6.909l-7.827-6.072Z" transform="translate(-890.806 -177.683)"/>
          </g>
        </g>
        <g id="Group_1178" data-name="Group 1178" transform="translate(258.84 141.488)">
          <g id="Group_1175" data-name="Group 1175">
            <path id="Path_7848" data-name="Path 7848" class="cls-2" d="M997.5,192.758s-41.485-13.8-66.043-15.4v2.094s36.01,4.806,66.043,17.758Z" transform="translate(-931.461 -177.357)"/>
          </g>
          <g id="Group_1176" data-name="Group 1176" transform="translate(54.58 0.321)">
            <path id="Path_7849" data-name="Path 7849" class="cls-2" d="M961.8,190.027V178.472h.71v9.79L972.8,177.535l.512.491Z" transform="translate(-961.796 -177.535)"/>
          </g>
          <g id="Group_1177" data-name="Group 1177" transform="translate(29.449 0.586)">
            <path id="Path_7850" data-name="Path 7850" class="cls-2" d="M963.5,187.83v-7.967l-7.827,6.072v-6.909l-7.844,5.348.152-6.029.71.018-.117,4.644,7.809-5.325v6.8l7.826-6.072v7.8l8.867-8.125.48.523Z" transform="translate(-947.828 -177.683)"/>
          </g>
        </g>
        <g id="Group_1196" data-name="Group 1196" transform="translate(361.996 57.869)">
          <g id="Group_1179" data-name="Group 1179" transform="translate(11.021 79.838)">
            <path id="Path_7851" data-name="Path 7851" class="cls-2" d="M996.529,175.255h127.422v6.675l-129.032-2.894Z" transform="translate(-994.919 -175.255)"/>
          </g>
          <g id="Group_1180" data-name="Group 1180" transform="translate(1.081)">
            <path id="Path_7852" data-name="Path 7852" class="cls-2" d="M989.886,130.882s71.861,63.567,138.48,79.837h0l-1.414,3.338s-51.735-9.486-137.557-81.217Z" transform="translate(-989.395 -130.882)"/>
          </g>
          <g id="Group_1181" data-name="Group 1181" transform="translate(0 10.126)">
            <path id="Path_7853" data-name="Path 7853" class="cls-2" d="M989.963,136.51s50.935,60.706,94.354,71.962l-6.031,1.087s-30.151-3.338-89.492-70.233Z" transform="translate(-988.794 -136.51)"/>
          </g>
          <g id="Group_1182" data-name="Group 1182" transform="translate(17.162 15.279)">
            <rect id="Rectangle_819" data-name="Rectangle 819" class="cls-2" width="0.71" height="66.006"/>
          </g>
          <g id="Group_1183" data-name="Group 1183" transform="translate(38.658 30.077)">
            <rect id="Rectangle_820" data-name="Rectangle 820" class="cls-2" width="0.71" height="52.403"/>
          </g>
          <g id="Group_1184" data-name="Group 1184" transform="translate(58.318 43.535)">
            <rect id="Rectangle_821" data-name="Rectangle 821" class="cls-2" width="0.71" height="38.944"/>
          </g>
          <g id="Group_1185" data-name="Group 1185" transform="translate(79.453 56.808)">
            <rect id="Rectangle_822" data-name="Rectangle 822" class="cls-2" width="0.71" height="24.477"/>
          </g>
          <g id="Group_1186" data-name="Group 1186" transform="translate(104.029 69.046)">
            <rect id="Rectangle_823" data-name="Rectangle 823" class="cls-2" width="0.71" height="12.239"/>
          </g>
          <g id="Group_1187" data-name="Group 1187" transform="translate(17.219 14.18)">
            <rect id="Rectangle_824" data-name="Rectangle 824" class="cls-2" width="0.71" height="40.97" transform="matrix(0.839, -0.544, 0.544, 0.839, 0, 0.386)"/>
          </g>
          <g id="Group_1188" data-name="Group 1188" transform="translate(17.479 28.766)">
            <rect id="Rectangle_825" data-name="Rectangle 825" class="cls-2" width="0.71" height="21.618" transform="translate(0 0.706) rotate(-83.903)"/>
          </g>
          <g id="Group_1189" data-name="Group 1189" transform="translate(39.72 43.189)">
            <rect id="Rectangle_826" data-name="Rectangle 826" class="cls-2" width="19.566" height="0.71" transform="matrix(0.964, -0.267, 0.267, 0.964, 0, 5.217)"/>
          </g>
          <g id="Group_1190" data-name="Group 1190" transform="translate(38.71 31.23)">
            <rect id="Rectangle_827" data-name="Rectangle 827" class="cls-2" width="0.71" height="37.626" transform="matrix(0.853, -0.523, 0.523, 0.853, 0, 0.371)"/>
          </g>
          <g id="Group_1191" data-name="Group 1191" transform="translate(58.375 44)">
            <rect id="Rectangle_828" data-name="Rectangle 828" class="cls-2" width="0.71" height="38.992" transform="translate(0 0.385) rotate(-32.822)"/>
          </g>
          <g id="Group_1192" data-name="Group 1192" transform="translate(58.545 56.476)">
            <rect id="Rectangle_829" data-name="Rectangle 829" class="cls-2" width="22.667" height="0.71" transform="translate(0 8.192) rotate(-21.187)"/>
          </g>
          <g id="Group_1193" data-name="Group 1193" transform="translate(78.227 68.705)">
            <rect id="Rectangle_830" data-name="Rectangle 830" class="cls-2" width="27.323" height="0.71" transform="translate(0 8.246) rotate(-17.566)"/>
          </g>
          <g id="Group_1194" data-name="Group 1194" transform="translate(79.557 56.556)">
            <rect id="Rectangle_831" data-name="Rectangle 831" class="cls-2" width="0.71" height="34.686" transform="matrix(0.706, -0.709, 0.709, 0.706, 0, 0.503)"/>
          </g>
          <g id="Group_1195" data-name="Group 1195" transform="translate(104.238 74.843)">
            <rect id="Rectangle_832" data-name="Rectangle 832" class="cls-2" width="14.912" height="0.71" transform="translate(0 6.116) rotate(-24.215)"/>
          </g>
        </g>
        <g id="Group_1214" data-name="Group 1214" transform="translate(0 57.869)">
          <g id="Group_1197" data-name="Group 1197" transform="translate(0 79.838)">
            <path id="Path_7854" data-name="Path 7854" class="cls-2" d="M915.021,175.255H787.6v6.675l129.032-2.894Z" transform="translate(-787.6 -175.255)"/>
          </g>
          <g id="Group_1198" data-name="Group 1198" transform="translate(0)">
            <path id="Path_7855" data-name="Path 7855" class="cls-2" d="M926.08,130.882s-71.861,63.567-138.48,79.837h0l1.414,3.338s51.735-9.486,137.557-81.217Z" transform="translate(-787.6 -130.882)"/>
          </g>
          <g id="Group_1199" data-name="Group 1199" transform="translate(44.53 10.126)">
            <path id="Path_7856" data-name="Path 7856" class="cls-2" d="M906.7,136.51s-50.934,60.706-94.354,71.962l6.031,1.087s30.152-3.338,89.492-70.233Z" transform="translate(-812.349 -136.51)"/>
          </g>
          <g id="Group_1200" data-name="Group 1200" transform="translate(122.181 15.279)">
            <rect id="Rectangle_833" data-name="Rectangle 833" class="cls-2" width="0.71" height="66.006"/>
          </g>
          <g id="Group_1201" data-name="Group 1201" transform="translate(100.685 30.077)">
            <rect id="Rectangle_834" data-name="Rectangle 834" class="cls-2" width="0.71" height="52.403"/>
          </g>
          <g id="Group_1202" data-name="Group 1202" transform="translate(81.025 43.535)">
            <rect id="Rectangle_835" data-name="Rectangle 835" class="cls-2" width="0.71" height="38.944"/>
          </g>
          <g id="Group_1203" data-name="Group 1203" transform="translate(59.89 56.808)">
            <rect id="Rectangle_836" data-name="Rectangle 836" class="cls-2" width="0.71" height="24.477"/>
          </g>
          <g id="Group_1204" data-name="Group 1204" transform="translate(35.314 69.046)">
            <rect id="Rectangle_837" data-name="Rectangle 837" class="cls-2" width="0.71" height="12.239"/>
          </g>
          <g id="Group_1205" data-name="Group 1205" transform="translate(99.943 14.179)">
            <rect id="Rectangle_838" data-name="Rectangle 838" class="cls-2" width="40.97" height="0.71" transform="translate(0 34.374) rotate(-57.035)"/>
          </g>
          <g id="Group_1206" data-name="Group 1206" transform="translate(101.003 28.763)">
            <rect id="Rectangle_839" data-name="Rectangle 839" class="cls-2" width="21.618" height="0.71" transform="translate(0 2.302) rotate(-6.114)"/>
          </g>
          <g id="Group_1207" data-name="Group 1207" transform="translate(81.285 43.193)">
            <rect id="Rectangle_840" data-name="Rectangle 840" class="cls-2" width="0.71" height="19.565" transform="matrix(0.266, -0.964, 0.964, 0.266, 0, 0.684)"/>
          </g>
          <g id="Group_1208" data-name="Group 1208" transform="translate(81.081 31.228)">
            <rect id="Rectangle_841" data-name="Rectangle 841" class="cls-2" width="37.626" height="0.71" transform="translate(0 32.085) rotate(-58.511)"/>
          </g>
          <g id="Group_1209" data-name="Group 1209" transform="translate(59.951 43.996)">
            <rect id="Rectangle_842" data-name="Rectangle 842" class="cls-2" width="38.992" height="0.71" transform="translate(0 32.774) rotate(-57.196)"/>
          </g>
          <g id="Group_1210" data-name="Group 1210" transform="translate(60.116 56.476)">
            <rect id="Rectangle_843" data-name="Rectangle 843" class="cls-2" width="0.71" height="22.667" transform="matrix(0.361, -0.932, 0.932, 0.361, 0, 0.662)"/>
          </g>
          <g id="Group_1211" data-name="Group 1211" transform="translate(35.562 68.708)">
            <rect id="Rectangle_844" data-name="Rectangle 844" class="cls-2" width="0.709" height="27.323" transform="matrix(0.302, -0.953, 0.953, 0.302, 0, 0.676)"/>
          </g>
          <g id="Group_1212" data-name="Group 1212" transform="translate(35.421 56.553)">
            <rect id="Rectangle_845" data-name="Rectangle 845" class="cls-2" width="34.686" height="0.71" transform="matrix(0.708, -0.706, 0.706, 0.708, 0, 24.483)"/>
          </g>
          <g id="Group_1213" data-name="Group 1213" transform="translate(21.924 74.842)">
            <rect id="Rectangle_846" data-name="Rectangle 846" class="cls-2" width="0.71" height="14.912" transform="translate(0 0.647) rotate(-65.772)"/>
          </g>
        </g>
      </g>
      <g id="Group_1256" data-name="Group 1256" transform="translate(29.096 9.458)">
        <g id="Group_1216" data-name="Group 1216" transform="translate(17.58 14.354)">
          <path id="Path_7857" data-name="Path 7857" class="cls-2" d="M797.492,294.927c-78.663,0-142.66-64-142.66-142.66,0-38.029,14.4-73.189,40.539-99,26.056-25.729,61.435-39.9,99.616-39.9,38.491,0,74.753,14.164,102.1,39.88,27.769,26.112,43.061,61.28,43.061,99.023C940.15,230.93,876.155,294.927,797.492,294.927Zm-2.5-279.2c-77.268,0-137.794,59.977-137.794,136.544,0,77.362,62.937,140.3,140.3,140.3s140.3-62.937,140.3-140.3C937.791,76.977,873.73,15.724,794.988,15.724Z" transform="translate(-654.833 -13.365)"/>
        </g>
        <g id="Group_1217" data-name="Group 1217" transform="translate(35.743 29.718)">
          <path id="Path_7858" data-name="Path 7858" class="cls-2" d="M788.5,273.5a119.117,119.117,0,0,1-44.387-8.631,125.966,125.966,0,0,1-2.7-232.738,125.143,125.143,0,0,1,96.4-1.117c31.17,12.488,55.26,35.837,67.833,65.742,12.532,29.808,12.528,63.459-.011,94.755C893,223.055,869.48,248.122,839.42,262.091A120.574,120.574,0,0,1,788.5,273.5Zm2.445-249.232a123.644,123.644,0,0,0-45.954,238.411,116.651,116.651,0,0,0,93.438-2.724c29.513-13.716,52.6-38.335,65.021-69.323,25.321-63.189-3.9-132.341-66.509-157.429A123.5,123.5,0,0,0,790.941,24.265Z" transform="translate(-664.928 -21.904)"/>
        </g>
        <g id="Group_1218" data-name="Group 1218" transform="translate(153.725 147.435)">
          <path id="Path_7859" data-name="Path 7859" class="cls-2" d="M744.4,94.28a6.951,6.951,0,1,1-13.9,0c0-3.838,1.346-6.95,5.185-6.95S744.4,90.443,744.4,94.28Z" transform="translate(-730.501 -87.33)"/>
        </g>
        <g id="Group_1219" data-name="Group 1219" transform="translate(153.725 158.781)">
          <path id="Path_7860" data-name="Path 7860" class="cls-2" d="M744.4,96.576c0,1.625-3.113,2.94-6.951,2.942S730.5,98.2,730.5,96.576s1.346-2.94,5.185-2.94S744.4,94.953,744.4,96.576Z" transform="translate(-730.501 -93.636)"/>
        </g>
        <g id="Group_1220" data-name="Group 1220" transform="translate(160.677 161.721)">
          <path id="Path_7861" data-name="Path 7861" class="cls-2" d="M736.6,95.27s22.935,129.334,29.362,160.4h-8.548S736.13,111.827,734.365,95.27Z" transform="translate(-734.365 -95.27)"/>
        </g>
        <g id="Group_1221" data-name="Group 1221" transform="translate(129.111 161.721)">
          <path id="Path_7862" data-name="Path 7862" class="cls-2" d="M716.821,255.669l7.81-.762L748.386,95.27H745.32Z" transform="translate(-716.821 -95.27)"/>
        </g>
        <g id="Group_1222" data-name="Group 1222" transform="translate(140.598 279.225)">
          <path id="Path_7863" data-name="Path 7863" class="cls-2" d="M742.847,176.679a.589.589,0,0,1-.5-.277l-8.865-14.176-9.322,12.915-.955-.691,9.835-13.626a.547.547,0,0,1,.5-.243.588.588,0,0,1,.48.275l8.771,14.025,6.918-13.973a.591.591,0,0,1,.973-.128l11.893,13.609-.887.777-11.314-12.945-7,14.128a.591.591,0,0,1-.5.329Z" transform="translate(-723.205 -160.578)"/>
        </g>
        <g id="Group_1223" data-name="Group 1223" transform="translate(18.171 14.944)">
          <path id="Path_7864" data-name="Path 7864" class="cls-2" d="M822.7,291.522l-1.089-.452,7.147-17.17a.59.59,0,0,1,.392-.344.584.584,0,0,1,.511.1L843.8,284.525l5.34-18.538a.589.589,0,0,1,.919-.309l13.422,9.991,1.6-19.045a.59.59,0,0,1,.916-.441l13.68,9.133-1.528-19.029a.59.59,0,0,1,.772-.608l17.467,5.686-2.926-21.647a.591.591,0,0,1,.695-.659l18.023,3.384-7.28-20.016a.593.593,0,0,1,.072-.54.586.586,0,0,1,.482-.252h18.829L913.8,192.663a.592.592,0,0,1,.441-.871l18.214-2.364L919.15,172.942a.589.589,0,0,1,.268-.928l17.193-5.9L921.2,156.81a.591.591,0,0,1-.04-.984l16.5-11.886L919.977,132.5a.592.592,0,0,1-.128-.88L932.84,116.5l-17.9-5.005a.59.59,0,0,1-.354-.856l9.554-17.024L906.5,92.446a.6.6,0,0,1-.444-.25.582.582,0,0,1-.085-.5l5.434-18.959-16.418,2.616a.581.581,0,0,1-.524-.18.592.592,0,0,1-.146-.533l3.888-17.192-17.672,3.093a.6.6,0,0,1-.5-.144.588.588,0,0,1-.191-.482L881.1,43.037l-15.088,6.648a.6.6,0,0,1-.536-.031.591.591,0,0,1-.29-.452l-1.7-17.118-14.948,8.37a.588.588,0,0,1-.495.04.6.6,0,0,1-.349-.354l-6.231-17.388L828.337,33.622a.592.592,0,0,1-.892-.169l-9.088-16.368L803.608,30.122a.588.588,0,0,1-.907-.157l-8.08-14.651L780.9,31.434a.618.618,0,0,1-.459.207.59.59,0,0,1-.452-.223L769.148,17.792l-4.773,17.073a.588.588,0,0,1-.346.389.6.6,0,0,1-.518-.036L744.521,24.2l-2.935,19.779a.588.588,0,0,1-.838.444l-19.027-9.19V56.781a.591.591,0,0,1-.833.536L702.929,49.2l4.9,20.294a.587.587,0,0,1-.113.507.618.618,0,0,1-.471.22l-23.687-.486,8.77,20.276a.591.591,0,0,1-.585.822l-20.258-1.447,10.383,22.7a.6.6,0,0,1-.011.513.587.587,0,0,1-.408.309l-20.27,4.1,14.669,18.277a.592.592,0,0,1-.194.9l-18.739,9.478,17.363,11.677a.59.59,0,0,1,.009.973l-16.337,11.389L677.2,180.878a.589.589,0,0,1,.191.842l-12.278,18,19.576,4.46a.587.587,0,0,1,.419.784L677.388,225.3l19.345.448a.588.588,0,0,1,.574.635l-1.743,22.571,17.413-4.23a.584.584,0,0,1,.533.133.593.593,0,0,1,.193.513L711.468,263.2l18.462-5.054a.589.589,0,0,1,.734.457l3.7,19.126,17.748-7.929a.589.589,0,0,1,.824.455l2.1,14.721,13.51-9.835a.588.588,0,0,1,.921.342l3.665,15.684-1.15.268-3.462-14.817L754.935,286.5a.59.59,0,0,1-.932-.394l-2.123-14.917-17.712,7.915a.589.589,0,0,1-.513-.016.581.581,0,0,1-.306-.41l-3.723-19.232-18.7,5.119a.59.59,0,0,1-.74-.642l2.236-17.854-17.373,4.221a.591.591,0,0,1-.727-.619l1.76-22.762-19.556-.452a.589.589,0,0,1-.538-.8l7.776-20.481-19.757-4.5a.59.59,0,0,1-.358-.907l12.409-18.19-19.5-11.333a.589.589,0,0,1-.041-.993L672.9,157.825l-17.483-11.756a.591.591,0,0,1,.063-1.017l18.987-9.6-14.818-18.464a.59.59,0,0,1,.344-.948l20.49-4.144L670,88.968a.589.589,0,0,1,.05-.583.574.574,0,0,1,.527-.25l20.283,1.447-8.748-20.227a.588.588,0,0,1,.052-.563.64.64,0,0,1,.5-.261l23.84.491L701.5,48.3a.59.59,0,0,1,.817-.677l18.226,8.242V34.291a.591.591,0,0,1,.846-.531l19.151,9.252,2.944-19.846a.592.592,0,0,1,.88-.425l19.083,11.072,4.88-17.453a.59.59,0,0,1,1.029-.209l11.114,13.969L794.276,13.9a.59.59,0,0,1,.966.1l8.136,14.754,14.747-13.037a.6.6,0,0,1,.491-.139.584.584,0,0,1,.416.3l9.1,16.389,13.224-10.952a.589.589,0,0,1,.932.255l6.279,17.523,15.126-8.469a.589.589,0,0,1,.874.455l1.713,17.2,15.245-6.715a.59.59,0,0,1,.826.583l-1.274,17.1,17.8-3.114a.6.6,0,0,1,.529.175.592.592,0,0,1,.149.538l-3.892,17.2,16.472-2.623a.59.59,0,0,1,.66.745l-5.488,19.146,17.841,1.177a.591.591,0,0,1,.477.878l-9.646,17.184,18.07,5.052a.59.59,0,0,1,.29.952l-13.154,15.313L939.03,143.42a.588.588,0,0,1,.023.973l-16.479,11.87,15.729,9.5a.59.59,0,0,1-.113,1.063L920.6,172.855l13.44,16.652a.59.59,0,0,1-.383.955l-18.4,2.389L925.8,211.94a.592.592,0,0,1-.516.876H906.3l7.344,20.2a.588.588,0,0,1-.662.781l-18.239-3.422,2.942,21.765a.592.592,0,0,1-.768.641l-17.519-5.7,1.555,19.363a.59.59,0,0,1-.916.538l-13.861-9.255-1.607,19.106a.589.589,0,0,1-.939.423l-13.591-10.117-5.344,18.552a.589.589,0,0,1-.927.3l-14.216-10.925Z" transform="translate(-655.161 -13.693)"/>
        </g>
        <g id="Group_1224" data-name="Group 1224" transform="translate(11.855 8.705)">
          <path id="Path_7865" data-name="Path 7865" class="cls-2" d="M800.036,303.086c-81.82,0-148.385-66.566-148.385-148.385,0-39.556,14.973-76.126,42.163-102.976,27.1-26.762,63.9-41.5,103.616-41.5,40.037,0,77.752,14.732,106.2,41.481,28.883,27.159,44.79,63.738,44.79,103C948.42,236.52,881.854,303.086,800.036,303.086Zm-2.605-290.5c-80.422,0-143.419,62.426-143.419,142.118,0,80.518,65.5,146.024,146.024,146.024S946.06,235.219,946.06,154.7C946.06,76.338,879.386,12.584,797.43,12.584Z" transform="translate(-651.651 -10.225)"/>
        </g>
        <g id="Group_1225" data-name="Group 1225" transform="translate(154.178 300.386)">
          <path id="Path_7866" data-name="Path 7866" class="cls-2" d="M737.39,172.339c-3.665,0-6.637,3.174-6.637,6.13s2.972,5.353,6.637,5.353,6.639-2.4,6.639-5.353S741.057,172.339,737.39,172.339Zm-4.4,5.085s.371-2.9,3.969-2.9c4.865,0,4.941,3.557,4.941,3.557Z" transform="translate(-730.753 -172.339)"/>
        </g>
        <g id="Group_1226" data-name="Group 1226" transform="translate(205.415 291.552)">
          <path id="Path_7867" data-name="Path 7867" class="cls-2" d="M765.869,167.429c-3.667,0-6.639,3.174-6.639,6.13s2.972,5.355,6.639,5.355,6.637-2.4,6.637-5.355S769.534,167.429,765.869,167.429Zm-4.4,5.085s.369-2.9,3.969-2.9c4.863.005,4.939,3.559,4.939,3.559Z" transform="translate(-759.23 -167.429)"/>
        </g>
        <g id="Group_1227" data-name="Group 1227" transform="translate(248.35 268.78)">
          <path id="Path_7868" data-name="Path 7868" class="cls-2" d="M789.732,154.773c-3.667,0-6.639,3.172-6.639,6.13s2.972,5.353,6.639,5.353,6.637-2.4,6.637-5.353S793.4,154.773,789.732,154.773Zm-4.4,5.085s.369-2.9,3.967-2.9c4.865,0,4.941,3.557,4.941,3.557Z" transform="translate(-783.093 -154.773)"/>
        </g>
        <g id="Group_1228" data-name="Group 1228" transform="translate(274.918 241.027)">
          <path id="Path_7869" data-name="Path 7869" class="cls-2" d="M804.5,139.348c-3.667,0-6.639,3.172-6.639,6.13s2.972,5.353,6.639,5.353,6.637-2.4,6.637-5.355S808.163,139.348,804.5,139.348Zm-4.4,5.083s.369-2.9,3.967-2.9c4.865,0,4.941,3.557,4.941,3.557Z" transform="translate(-797.859 -139.348)"/>
        </g>
        <g id="Group_1229" data-name="Group 1229" transform="translate(297.689 201.887)">
          <path id="Path_7870" data-name="Path 7870" class="cls-2" d="M817.154,117.594c-3.667,0-6.639,3.174-6.639,6.13s2.972,5.353,6.639,5.353,6.639-2.4,6.639-5.353S820.821,117.594,817.154,117.594Zm-4.4,5.085s.37-2.9,3.969-2.9c4.863,0,4.941,3.557,4.941,3.557Z" transform="translate(-810.515 -117.594)"/>
        </g>
        <g id="Group_1230" data-name="Group 1230" transform="translate(306.037 158.613)">
          <path id="Path_7871" data-name="Path 7871" class="cls-2" d="M821.792,93.543c-3.665,0-6.637,3.172-6.637,6.128s2.972,5.355,6.637,5.355,6.639-2.4,6.639-5.355S825.459,93.543,821.792,93.543Zm-4.4,5.083s.371-2.9,3.969-2.9c4.865,0,4.941,3.557,4.941,3.557Z" transform="translate(-815.155 -93.543)"/>
        </g>
        <g id="Group_1231" data-name="Group 1231" transform="translate(302.354 109.307)">
          <path id="Path_7872" data-name="Path 7872" class="cls-2" d="M819.747,66.139c-3.667,0-6.639,3.174-6.639,6.13s2.972,5.355,6.639,5.355,6.639-2.4,6.639-5.355S823.414,66.139,819.747,66.139Zm-4.4,5.085s.371-2.9,3.969-2.9c4.863.005,4.941,3.559,4.941,3.559Z" transform="translate(-813.108 -66.139)"/>
        </g>
        <g id="Group_1232" data-name="Group 1232" transform="translate(288.182 73.623)">
          <path id="Path_7873" data-name="Path 7873" class="cls-2" d="M811.868,46.306c-3.667,0-6.637,3.174-6.637,6.13s2.971,5.353,6.637,5.353,6.639-2.4,6.639-5.353S815.535,46.306,811.868,46.306Zm-4.4,5.085s.371-2.9,3.969-2.9c4.865,0,4.941,3.557,4.941,3.557Z" transform="translate(-805.231 -46.306)"/>
        </g>
        <g id="Group_1233" data-name="Group 1233" transform="translate(260.531 39.975)">
          <path id="Path_7874" data-name="Path 7874" class="cls-2" d="M796.5,27.6c-3.667,0-6.637,3.174-6.637,6.13s2.971,5.353,6.637,5.353,6.639-2.4,6.639-5.353S800.167,27.6,796.5,27.6Zm-4.4,5.085s.371-2.9,3.969-2.9c4.865,0,4.941,3.557,4.941,3.557Z" transform="translate(-789.863 -27.605)"/>
        </g>
        <g id="Group_1234" data-name="Group 1234" transform="translate(219.179 12.658)">
          <path id="Path_7875" data-name="Path 7875" class="cls-2" d="M773.519,12.422c-3.667,0-6.639,3.174-6.639,6.13s2.972,5.355,6.639,5.355,6.637-2.4,6.637-5.355S777.184,12.422,773.519,12.422Zm-4.4,5.085s.369-2.9,3.967-2.9c4.865.005,4.941,3.559,4.941,3.559Z" transform="translate(-766.88 -12.422)"/>
        </g>
        <g id="Group_1235" data-name="Group 1235" transform="translate(177.871)">
          <path id="Path_7876" data-name="Path 7876" class="cls-2" d="M750.558,5.387c-3.667,0-6.637,3.172-6.637,6.128s2.971,5.355,6.637,5.355,6.639-2.4,6.639-5.355S754.225,5.387,750.558,5.387Zm-4.4,5.083s.371-2.9,3.969-2.9c4.863.005,4.941,3.559,4.941,3.559Z" transform="translate(-743.921 -5.387)"/>
        </g>
        <g id="Group_1236" data-name="Group 1236" transform="translate(122.567)">
          <path id="Path_7877" data-name="Path 7877" class="cls-2" d="M719.823,5.387c-3.667,0-6.639,3.172-6.639,6.128s2.972,5.355,6.639,5.355,6.639-2.4,6.639-5.355S723.49,5.387,719.823,5.387Zm-4.4,5.083s.371-2.9,3.969-2.9c4.863.005,4.941,3.559,4.941,3.559Z" transform="translate(-713.184 -5.387)"/>
        </g>
        <g id="Group_1237" data-name="Group 1237" transform="translate(73.596 19.322)">
          <path id="Path_7878" data-name="Path 7878" class="cls-2" d="M692.605,16.126c-3.667,0-6.639,3.172-6.639,6.128s2.972,5.355,6.639,5.355,6.639-2.4,6.639-5.355S696.272,16.126,692.605,16.126Zm-4.4,5.083s.369-2.9,3.969-2.9c4.863,0,4.941,3.557,4.941,3.557Z" transform="translate(-685.966 -16.126)"/>
        </g>
        <g id="Group_1238" data-name="Group 1238" transform="translate(33.77 51.969)">
          <path id="Path_7879" data-name="Path 7879" class="cls-2" d="M670.468,34.271c-3.667,0-6.637,3.174-6.637,6.13s2.971,5.353,6.637,5.353,6.639-2.4,6.639-5.353S674.135,34.271,670.468,34.271Zm-4.4,5.085s.371-2.9,3.969-2.9c4.863,0,4.941,3.557,4.941,3.557Z" transform="translate(-663.831 -34.271)"/>
        </g>
        <g id="Group_1239" data-name="Group 1239" transform="translate(10.66 91.613)">
          <path id="Path_7880" data-name="Path 7880" class="cls-2" d="M657.626,56.305c-3.667,0-6.639,3.172-6.639,6.128s2.972,5.355,6.639,5.355,6.639-2.4,6.639-5.355S661.293,56.305,657.626,56.305Zm-4.4,5.083s.369-2.9,3.969-2.9c4.863,0,4.941,3.557,4.941,3.557Z" transform="translate(-650.987 -56.305)"/>
        </g>
        <g id="Group_1240" data-name="Group 1240" transform="translate(0 141.584)">
          <path id="Path_7881" data-name="Path 7881" class="cls-2" d="M651.7,84.078c-3.667,0-6.639,3.174-6.639,6.13s2.972,5.353,6.639,5.353,6.639-2.4,6.639-5.353S655.368,84.078,651.7,84.078Zm-4.4,5.085s.369-2.9,3.969-2.9c4.863,0,4.941,3.557,4.941,3.557Z" transform="translate(-645.062 -84.078)"/>
        </g>
        <g id="Group_1241" data-name="Group 1241" transform="translate(5.876 188.556)">
          <path id="Path_7882" data-name="Path 7882" class="cls-2" d="M654.965,110.185c-3.665,0-6.637,3.174-6.637,6.13s2.972,5.353,6.637,5.353,6.639-2.4,6.639-5.353S658.632,110.185,654.965,110.185Zm-4.4,5.085s.371-2.9,3.969-2.9c4.865,0,4.941,3.557,4.941,3.557Z" transform="translate(-648.328 -110.185)"/>
        </g>
        <g id="Group_1242" data-name="Group 1242" transform="translate(28.854 237.236)">
          <path id="Path_7883" data-name="Path 7883" class="cls-2" d="M667.738,137.241c-3.667,0-6.639,3.172-6.639,6.13s2.972,5.353,6.639,5.353,6.639-2.4,6.639-5.353S671.405,137.241,667.738,137.241Zm-4.4,5.085s.369-2.9,3.969-2.9c4.863,0,4.941,3.557,4.941,3.557Z" transform="translate(-661.099 -137.241)"/>
        </g>
        <g id="Group_1243" data-name="Group 1243" transform="translate(60.792 269.734)">
          <path id="Path_7884" data-name="Path 7884" class="cls-2" d="M685.489,155.3c-3.667,0-6.639,3.174-6.639,6.13s2.972,5.353,6.639,5.353,6.637-2.4,6.637-5.353S689.156,155.3,685.489,155.3Zm-4.4,5.085s.369-2.9,3.969-2.9c4.863,0,4.939,3.557,4.939,3.557Z" transform="translate(-678.85 -155.303)"/>
        </g>
        <g id="Group_1244" data-name="Group 1244" transform="translate(101.862 291.552)">
          <path id="Path_7885" data-name="Path 7885" class="cls-2" d="M708.315,167.429c-3.667,0-6.639,3.174-6.639,6.13s2.972,5.355,6.639,5.355,6.637-2.4,6.637-5.355S711.98,167.429,708.315,167.429Zm-4.4,5.085s.369-2.9,3.967-2.9c4.865.005,4.941,3.559,4.941,3.559Z" transform="translate(-701.676 -167.429)"/>
        </g>
        <g id="Group_1245" data-name="Group 1245" transform="translate(36.806 152.772)">
          <rect id="Rectangle_847" data-name="Rectangle 847" class="cls-2" width="0.59" height="247.801" transform="translate(0 0.59) rotate(-89.431)"/>
        </g>
        <g id="Group_1246" data-name="Group 1246" transform="translate(84.115 56.31)">
          <rect id="Rectangle_848" data-name="Rectangle 848" class="cls-2" width="249.708" height="0.589" transform="translate(0 197.149) rotate(-52.14)"/>
        </g>
        <g id="Group_1247" data-name="Group 1247" transform="translate(159.952 30.938)">
          <rect id="Rectangle_849" data-name="Rectangle 849" class="cls-2" width="249.337" height="0.59" transform="translate(0 249.322) rotate(-89.388)"/>
        </g>
        <g id="Group_1248" data-name="Group 1248" transform="translate(75.004 65.623)">
          <rect id="Rectangle_850" data-name="Rectangle 850" class="cls-2" width="0.59" height="246.425" transform="matrix(0.726, -0.688, 0.688, 0.726, 0, 0.406)"/>
        </g>
        <g id="Group_1249" data-name="Group 1249" transform="translate(47.465 101.157)">
          <rect id="Rectangle_851" data-name="Rectangle 851" class="cls-2" width="249.222" height="0.59" transform="matrix(0.908, -0.42, 0.42, 0.908, 0, 104.626)"/>
        </g>
        <g id="Group_1250" data-name="Group 1250" transform="translate(46.932 106.41)">
          <rect id="Rectangle_852" data-name="Rectangle 852" class="cls-2" width="0.589" height="246.961" transform="translate(0 0.544) rotate(-67.325)"/>
        </g>
        <g id="Group_1251" data-name="Group 1251" transform="translate(110.683 41.671)">
          <rect id="Rectangle_853" data-name="Rectangle 853" class="cls-2" width="0.59" height="247.499" transform="matrix(0.912, -0.411, 0.411, 0.912, 0, 0.243)"/>
        </g>
        <g id="Group_1252" data-name="Group 1252" transform="translate(115.114 37.625)">
          <rect id="Rectangle_854" data-name="Rectangle 854" class="cls-2" width="250.583" height="0.59" transform="translate(0 233.863) rotate(-68.951)"/>
        </g>
        <g id="Group_1253" data-name="Group 1253" transform="translate(218.692 281.106)">
          <path id="Path_7886" data-name="Path 7886" class="cls-2" d="M781.038,161.623v56.964H766.609l5.488-52.258Z" transform="translate(-766.609 -161.623)"/>
        </g>
        <g id="Group_1254" data-name="Group 1254" transform="translate(87.433 281.106)">
          <path id="Path_7887" data-name="Path 7887" class="cls-2" d="M693.657,161.623v56.964h14.428L702.6,166.329Z" transform="translate(-693.657 -161.623)"/>
        </g>
        <g id="Group_1255" data-name="Group 1255" transform="translate(46.991 316.735)">
          <path id="Path_7888" data-name="Path 7888" class="cls-2" d="M671.179,181.426s166.606,6.594,216.349,2.121l-1.713,3.948s-115.671,12.37-213.053-3.026Z" transform="translate(-671.179 -181.426)"/>
        </g>
      </g>
      <g id="Group_1257" data-name="Group 1257" transform="translate(329.132 0)">
        <path id="Path_7889" data-name="Path 7889" class="cls-2" d="M820.854,348.248l-8.649-231.97,14.252-38-1.788-21.3s9.678-35.243,10.79-46.087c.1-.955.259-1.565.754-.067,2.927,8.877,13.221,40.01,15.486,45.639l-.184,18.726,17.357,38.315,9.169,235.473Z" transform="translate(-811.512 7.694)"/>
        <path id="Path_7890" data-name="Path 7890" class="cls-2" d="M849.372,90.056a14.129,14.129,0,0,1-28.239,1.053c-.291-7.8,3.307-14.957,11.1-15.247S849.081,82.258,849.372,90.056Z" transform="translate(-804.389 60.39)"/>
        <path id="Path_7891" data-name="Path 7891" class="cls-2" d="M824.652,9.179l2.926-.109.14,3.74-3.292.123Z" transform="translate(-801.745 7.014)"/>
        <path id="Path_7892" data-name="Path 7892" class="cls-2" d="M825.436,17.006,824.809.178l1.28-.048.641,17.194Z" transform="translate(-801.438 -0.13)"/>
        <path id="Path_7893" data-name="Path 7893" class="cls-2" d="M869.18,75.462l-.669-17.941-1.929.072.72,19.321-54.789,1.32-.693-18.6,1.628-.061.861,16.261,49.349-1.076Z" transform="translate(-811.82 45.738)"/>
        <path id="Path_7894" data-name="Path 7894" class="cls-2" d="M835.353,42.225l-.54-14.49-2.157.08.588,15.762Z" transform="translate(-795.166 21.932)"/>
        <path id="Path_7895" data-name="Path 7895" class="cls-2" d="M819.209,42.34l-.173-14.024,2.133-.08.522,14.011" transform="translate(-806.052 22.333)"/>
        <path id="Path_7896" data-name="Path 7896" class="cls-2" d="M828.887,86.163a1.759,1.759,0,1,1,1.68-3.091c.855.464,1.393,1.3.928,2.157A2.123,2.123,0,0,1,828.887,86.163Z" transform="translate(-798.914 65.988)"/>
        <path id="Path_7897" data-name="Path 7897" class="cls-2" d="M838.627,81.893l-15.533,7.631,16.665-5.2Z" transform="translate(-802.808 65.217)"/>
        <path id="Path_7898" data-name="Path 7898" class="cls-2" d="M837.136,91.4,825.049,79.016l10.13,14.218Z" transform="translate(-801.246 62.917)"/>
      </g>
      <path id="Path_7899" data-name="Path 7899" class="cls-2" d="M1100.1,58.419c-30.945,25.222-37.739,70.643-43.581,107.664-5.659,35.864-6.81,72.455-5.362,108.7.083,2.031,1.263,36.2,2.544,36.256l34.653,1.582,34.651,1.583c12.276-58.218,16.422-122.064,6.22-180.757C1124.59,106.761,1116.747,80.22,1100.1,58.419Z" transform="translate(-291.855 46.456)"/>
      <g id="Group_1259" data-name="Group 1259" transform="translate(697.614 247.724)">
        <path id="Path_7900" data-name="Path 7900" class="cls-2" d="M1021.6,156.379l24.335-2.927,1.437,57.724-23.9.653Z" transform="translate(-1012.637 -125.314)"/>
        <g id="Group_1258" data-name="Group 1258">
          <rect id="Rectangle_855" data-name="Rectangle 855" class="cls-2" width="41.505" height="1.648" transform="translate(4.582 101.954) rotate(-3.637)"/>
          <path id="Path_7901" data-name="Path 7901" class="cls-2" d="M1016.865,152.662l1.645-.1,36.845-1.441-.3-4.786s-4.536-9.921-19.824-8.348-18.608,10.792-18.608,10.792Z" transform="translate(-1016.619 -137.813)"/>
          <path id="Path_7902" data-name="Path 7902" class="cls-2" d="M1017.79,153.611l35.889-2.281-.419-6.579-35.59,2.262Z" transform="translate(-1015.779 -132.268)"/>
          <path id="Path_7903" data-name="Path 7903" class="cls-2" d="M1016.952,149.761l5.232,82.319,38.432-2.442-5.167-81.273ZM1036.31,213.4l-5.831.371-.52-10.052,5.73-.1Zm-.716-11.274-5.713.1-.419-8.107,5.59-.5Zm-.635-10.007-5.574.5-.457-8.818,5.48-.329Zm-.646-10.144-5.462.327-.432-8.347,5.347-.59Zm-.642-10.106-5.329.588-.5-9.574,5.218-.579Zm9.219,41.114-5.083.322-.617-9.707,5.1-.085Zm-.7-10.966-5.1.085-.549-8.62,5.076-.453Zm-.666-10.486-5.077.455-.547-8.606,5.086-.3Zm-.633-9.95-5.085.3-.552-8.683,5.069-.558Zm-.664-10.434-5.068.558-.608-9.567,5.068-.563Zm9.838,41.379-5.682.362-.6-9.4,5.7-.1Zm-.676-10.628-5.7.1-.579-9.1,5.673-.507Zm-.7-11.008-5.673.507-.534-8.411,5.684-.34Zm-.619-9.739-5.684.34-.572-9.012,5.666-.624Zm-.685-10.794-5.666.624-.608-9.572,5.666-.63Z" transform="translate(-1016.353 -129.38)"/>
        </g>
      </g>
      <path id="Path_7904" data-name="Path 7904" class="cls-2" d="M784.6,214.695V170.148l22.622-1.505,1.939,50.236Z" transform="translate(-504.444 134.55)"/>
      <path id="Path_7905" data-name="Path 7905" class="cls-2" d="M693.852,238.353l-3.318-49.78-29.639,2.778-7.253-53.182L628.891,134.9v96.241l39.256,32.366Z" transform="translate(-628.891 107.583)"/>
      <path id="Path_7906" data-name="Path 7906" class="cls-2" d="M1139.774,158.819l-24.5,1v74.136h24.5Z" transform="translate(-240.156 126.699)"/>
      <rect id="Rectangle_856" data-name="Rectangle 856" class="cls-2" width="32.731" height="25.118" transform="translate(854.637 328.311)"/>
    </g>
  </g>
</svg>
